<svg xmlns="http://www.w3.org/2000/svg" width="63" height="50" viewBox="-1 -1 126 100">
  <g id="image" fill="#FFF">
    <path id="path14" d="M107.3557 76.775c-.69-.2255-1.4084-.2782-2.152-.1472-.986.1738-1.9442.5713-2.8815 1.1908-1.0965.755-1.762 1.6258-2.0065 2.6114-.083.3263-.1033.629-.0552.902.1138.6456.5423 1.0915 1.2874 1.345.633.204 1.339.236 2.118.0985.952-.1678 1.891-.5773 2.822-1.2322 1.097-.7488 1.765-1.605 2.017-2.5573.083-.3304.098-.6455.044-.95-.108-.6124-.506-1.0298-1.194-1.2606"/>
    <path id="path16" d="M90.6915 9.7963L85.287 31.76c-.392.7002-.9503 1.4474-1.6755 2.2434-1.2292 1.3485-2.339 2.1082-3.334 2.2837-.4778.085-.7566-.078-.8285-.488-.0425-.239-.0115-.549.105-.92l1.229-5.042c.2517-.996.2958-1.924.144-2.782-.417-2.367-1.936-3.687-4.5654-3.967 1.9113-.762 3.678-2 5.2834-3.713 1.6037-1.716 2.6564-3.57 3.1516-5.567l.7218-2.83c.1405-.592.1746-1.108.0962-1.554-.0348-.197-.0903-.381-.162-.557l3.2798-.578c.378-.066.781.022 1.2112.264.4316.245.6778.536.738.877.0247.141.0247.262.01.37zM69.9178 23.536l2.4397-9.604c.4713-1.955 1.5445-3.0846 3.222-3.3804 1.373-.2418 2.1585.205 2.358 1.3355.0538.308.0442.664-.0237 1.066l-1.046 4c-.479 1.888-2.7962 4.085-6.95 6.584zm-19.26-2.4904l-4.7214 18.8946c-.4753 1.9215-1.4995 3.021-3.0766 3.2995-1.4772.2605-2.3172-.206-2.5296-1.409-.0477-.2716-.0297-.5764.0546-.912l5.8028-23.2753c.2943-1.143.832-1.7882 1.6233-1.9277 1.505-.2655 2.459.7308 2.858 2.9934.146.827.144 1.604-.012 2.337zm72.0988-21.78L80.2146 6.767c-.6806.017-1.3907.0877-2.1355.2188-2.744.484-4.737 1.3994-5.983 2.751-.036-.0086-.07-.015-.106-.0235-.905-.7467-2.628-.9383-5.17-.5718-.165.0164-.712.102-.808.1702-.785.5833-1.686 2.4924-2.831 3.8586-1.382 1.393-2.606 2.1808-3.669 2.368-.343.0606-.531-.0284-.573-.2672-.006-.033-.008-.072-.007-.115.363-1.028.474-1.942.334-2.734-.302-1.713-1.483-2.387-3.537-2.025-1.373.243-2.538.853-3.494 1.836-1.373-.184-2.784-.147-4.222.106-2.333.411-4.371 1.284-6.114 2.619-2.055 1.562-3.391 3.531-3.995 5.898l-5.14 20.593c-.416.641-.967 1.307-1.654 2.001-1.382 1.393-2.607 2.183-3.669 2.37-.342.06-.531-.031-.574-.27-.012-.068-.011-.157.004-.268l7.619-30.449-7.453 1.314-3.971 15.969-5.5524.979 2.696-10.868c.1834-.772.2187-1.45.116-2.034-.3257-1.847-2.544-2.414-6.6577-1.688l-12.4985 2.2c-.927.164-1.3014.744-1.1263 1.737.1693.961.663 1.367 1.4875 1.221l8.8957-1.568c.378-.066.781.021 1.217.263.432.244.675.536.735.877.025.14.027.261.012.369L4.032 57.016c-.1873.735-.2354 1.381-.1375 1.9368.3283 1.8606 2.5804 2.4308 6.7442 1.6987l96.819-17.009c.347-.061.7454.035 1.2006.269.452.244.7076.538.7674.878.0255.145.0124.2695-.0362.382l-7.44 29.102 7.8582-1.372 7.4586-29.118c.213-.786.2707-1.4708.1675-2.057-.3287-1.863-2.586-2.432-6.76-1.696L13.8693 57.036c-.3462.0607-.7443-.0332-1.199-.2673-.452-.2453-.7087-.538-.769-.8775-.0255-.145-.0105-.27.0373-.383l4.872-19.745 5.558-.98-3.183 12.6484c-.1263.4816-.1512.9448-.0724 1.3917.1507.855.6293 1.5137 1.4354 1.9736.8058.459 1.6723.604 2.597.441 2.4022-.424 4.8658-1.669 7.3998-3.742.6174-.503 1.1746-1.002 1.6766-1.499.639 2.479 3.6527 3.245 9.0384 2.296 6.7873-1.197 10.763-4.106 11.9238-8.731L58.057 20.09c1.496-.6503 3.0158-1.6053 4.5622-2.8698.611-.499 1.2313-1.0664 1.831-1.669L57.05 45.26l7.812-1.3773 4.56-18.3523c2.4745.6242 3.8546 1.7427 4.1383 3.3514.0908.5153.0688 1.0694-.0785 1.6595l-1.745 6.935c-.143.589-.1647 1.1777-.0618 1.7618.1572.892.5885 1.616 1.2915 2.186.6955.563 1.5116.764 2.4356.601 2.371-.418 4.856-1.678 7.471-3.781.367-.295.712-.591 1.037-.887l-.815 3.313 8.177-1.442 7.235-30.809c.189-.738.255-1.368.203-1.89l4.588-.809c.377-.066.781.022 1.212.263.431.245.678.536.738.877.025.141.025.262.007.37L97.661 38.1l8.1764-1.442 7.237-30.808c.1885-.739.2536-1.3688.2006-1.8903l10.154-1.7904c.8233-.1453 1.1495-.696.9802-1.6563-.1752-.9932-.7265-1.41-1.652-1.247z"/>
    <path id="path18" d="M64.5324 70.2205l2.4394-9.605c.4716-1.9532 1.5448-3.0828 3.2232-3.379 1.3734-.242 2.1582.2032 2.3576 1.335.0545.31.0437.665-.0236 1.0642l-1.0462 4.0027c-.4785 1.8866-2.7966 4.0822-6.9504 6.582zm-19.258-2.4903l-4.6902 18.7913c-.4754 1.921-1.4992 3.022-3.0757 3.3-1.4794.261-2.3203-.2105-2.5318-1.4115-.048-.2732-.029-.5767.0556-.9097l5.7708-23.172c.295-1.1432.831-1.79 1.623-1.9292 1.506-.266 2.459.733 2.859 2.998.145.822.144 1.599-.01 2.334zm52.2903 6.437c-.2828 1.1835-1.119 2.4688-2.4974 3.861-1.297 1.3076-4.2295 3.5436-6.5144 4.2025-.484.1314-.968.2536-1.447.338-1.129.199-1.748.023-1.844-.524-.055-.3058-.001-.814.157-1.5105l1.69-6.6604c.617-2.5123 2.965-4.8353 7.041-6.9703l.501-1.9937c-2.572-.9268-3.976-2.09-4.224-3.496-.061-.3434-.041-.7195.067-1.128l1.156-4.5528c.351-1.44 1.12-2.262 2.321-2.4735.924-.163 1.434.0103 1.525.526.012.0694.003.1407-.017.216l-.742 2.993 7.168-4.1263c.011-.3572-.01-.671-.059-.947-.399-2.2614-2.603-3.0378-6.612-2.331-2.336.4117-4.466 1.1555-6.397 2.239-1.552.969-3.653 2.855-4.444 4.5494-.193.53-.355 1.1048-.489 1.7274-.624 2.4785-.873 4.1855-.743 5.116.1874 1.0617.7334 1.9113 1.6444 2.5492.9055.6328 1.93.9755 3.068 1.023-1.9095.792-3.6245 1.9803-5.151 3.5577-1.68 1.707-2.7563 3.526-3.228 5.447l-.5853 2.382c-.199.799-.339 1.533-.424 2.21-.086.098-.1737.196-.264.295-1.228 1.35-2.338 2.11-3.334 2.285-.4764.084-.7555-.076-.8286-.49-.042-.238-.009-.545.106-.92l1.229-5.04c.251-1 .296-1.927.145-2.782-.4172-2.367-1.9372-3.69-4.565-3.967 1.9096-.763 3.6765-2.003 5.282-3.717 1.603-1.716 2.6568-3.572 3.1508-5.568l.723-2.83c.141-.591.1746-1.111.096-1.556-.2234-1.269-1.2175-2.08-2.976-2.446-1.359-.29-2.877-.286-4.5603.011-2.745.484-4.7345 1.403-5.982 2.751-.037-.009-.071-.016-.107-.025-.9017-.7427-2.614-.934-5.137-.574-.1826.017-.7175.093-.839.172-.784.584-1.6875 2.4922-2.8326 3.861-1.382 1.393-2.606 2.1825-3.67 2.37-.342.0602-.531-.0325-.572-.271-.006-.0328-.008-.07-.008-.1128.3624-1.03.4725-1.942.333-2.736-.3027-1.715-1.3538-2.82-3.408-2.458-1.3747.242-2.6665 1.2852-3.6246 2.266-1.373-.182-2.7826-.1425-4.221.111-2.3316.4113-4.3685 1.284-6.115 2.615-2.053 1.566-3.391 3.5303-3.995 5.899l-5.092 20.42c-.478.7594-1.1495 1.5635-2.0135 2.413-2.639 2.479-5.79 4.0422-9.461 4.6895-1.0992.194-1.6873.034-1.7782-.4817-.0486-.2745.0004-.777.155-1.51l6.471-25.8505c.1676-.665.8164-1.097 1.946-1.296.9917-.175 1.528-.039 1.6067.406.012.069.008.1395-.013.2152l-.744 2.997 7.172-4.127c.009-.533-.02-1.005-.0927-1.418-.296-1.677-1.525-2.328-3.683-1.948l-6.373 1.125c-4.219.744-6.9983 3.8157-8.3473 9.2126L7.709 90.737c-.4937 1.9966-.6324 3.6122-.4152 4.844.478 2.7102 2.7718 3.7008 6.8847 2.976l3.9087-.689c2.0216-.357 4.302-1.5366 6.8492-3.5394.7267-.5757 1.3732-1.1475 1.944-1.717.6592 2.4538 3.6677 3.208 9.0275 2.2626 6.787-1.1967 10.762-4.1075 11.924-8.7306l4.841-19.3696c1.496-.6496 3.017-1.6047 4.563-2.8694.61-.4974 1.23-1.064 1.829-1.666l-7.4 29.708 7.812-1.3773 4.561-18.3553c2.473.6257 3.853 1.745 4.137 3.3556.09.5117.069 1.068-.077 1.657l-1.745 6.9348c-.143.593-.165 1.1784-.062 1.761.157.891.588 1.6195 1.29 2.1858.696.5672 1.513.7662 2.436.6032 2.37-.418 4.856-1.68 7.469-3.7825.441-.355.85-.711 1.231-1.066.779 2.018 2.969 2.537 6.662 2.154 0 0 1.433-.156 1.838-.222 2.537-.447 4.794-1.677 7.288-3.718 2.656-2.164 4.248-4.267 4.774-6.302l-1.716-1.609z"/>
  </g>
</svg>
